<svg width="25" height="25" viewBox="0 0 25 25" fill="none" xmlns="http://www.w3.org/2000/svg">
<g clip-path="url(#clip0_77_258)">
<path d="M22.625 4.76562V0H10.7188V1.1875H5.95312V2.38281H2.38281V10.7188H1.19531V13.0938H0V25H25V4.76562H22.625ZM5.95312 23.8125H1.19531V16.6641H5.95312V23.8125ZM5.95312 15.4766H3.57812V3.57031H5.95312V15.4766ZM7.14844 2.38281H10.7188V3.57031H8.33594V15.4766H7.14844V2.38281ZM10.7188 4.76562V15.4766H9.53125V4.76562H10.7188ZM11.9062 23.8125H7.14844V16.6641H11.9062V23.8125ZM23.8125 23.8125H13.1016V15.4766H11.9062V1.1875H21.4297V4.76562H17.8594V5.95312H23.8125V23.8125Z" fill="#011627"/>
<path d="M21.4297 16.6641H20.2422V17.8594H21.4297V16.6641Z" fill="#011627"/>
<path d="M21.4297 14.2891H20.2422V15.4766H21.4297V14.2891Z" fill="#011627"/>
<path d="M20.2422 17.8594H17.8594V19.0469H20.2422V17.8594Z" fill="#011627"/>
<path d="M17.8594 16.6641H16.6719V17.8594H17.8594V16.6641Z" fill="#011627"/>
<path d="M17.8594 14.2891H16.6719V15.4766H17.8594V14.2891Z" fill="#011627"/>
<path d="M17.8594 5.95312H16.6719V8.33594H17.8594V5.95312Z" fill="#011627"/>
<path d="M16.6719 8.33594H15.4766V10.7188H16.6719V8.33594Z" fill="#011627"/>
<path d="M15.4766 10.7188H14.2891V13.0938H15.4766V10.7188Z" fill="#011627"/>
<path d="M15.4766 2.38281H14.2891V3.57031H15.4766V2.38281Z" fill="#011627"/>
<path d="M14.2891 13.0938H13.1016V15.4766H14.2891V13.0938Z" fill="#011627"/>
<path d="M10.7188 19.0469H8.33594V21.4297H10.7188V19.0469Z" fill="#011627"/>
<path d="M4.76562 19.0469H2.38281V21.4297H4.76562V19.0469Z" fill="#011627"/>
</g>
<defs>
<clipPath id="clip0_77_258">
<rect width="25" height="25" fill="white"/>
</clipPath>
</defs>
</svg>
