<svg width="60" height="60" viewBox="0 0 60 60" fill="none" xmlns="http://www.w3.org/2000/svg">
<g clip-path="url(#clip0_77_278)">
<path d="M30 0C13.458 0 0 13.458 0 30C0 46.542 13.458 60 30 60C46.542 60 60 46.542 60 30C59.997 13.458 46.542 0 30 0ZM57.849 30C57.849 45.357 45.357 57.849 29.997 57.849C14.637 57.849 2.148 45.357 2.148 30C2.148 14.643 14.64 2.148 30 2.148C45.36 2.148 57.849 14.643 57.849 30Z" fill="#EBF0FF"/>
<path d="M23.04 22.881C25.086 22.881 26.745 27.675 26.745 22.875C26.745 18.072 25.086 14.175 23.04 14.175C20.991 14.175 19.335 18.072 19.335 22.875C19.335 27.675 20.997 22.881 23.04 22.881Z" fill="#EBF0FF"/>
<path d="M36.957 22.881C39.003 22.881 40.662 27.675 40.662 22.875C40.662 18.072 39.003 14.175 36.957 14.175C34.911 14.175 33.252 18.072 33.252 22.875C33.252 27.675 34.911 22.881 36.957 22.881Z" fill="#EBF0FF"/>
<path d="M17.34 31.689C19.674 36.471 24.528 39.51 29.85 39.519C35.172 39.528 40.035 36.507 42.387 31.734" stroke="#EBF0FF" stroke-width="3" stroke-miterlimit="10" stroke-linecap="round" stroke-linejoin="round"/>
<path d="M45.402 30.882C44.67 31.563 43.662 31.863 42.675 31.692C41.691 31.518 40.842 30.894 40.386 30.006" stroke="#EBF0FF" stroke-width="3" stroke-miterlimit="10" stroke-linecap="round" stroke-linejoin="round"/>
<path d="M14.319 30.882C15.051 31.563 16.062 31.863 17.046 31.692C18.033 31.518 18.879 30.894 19.335 30.006" stroke="#EBF0FF" stroke-width="3" stroke-miterlimit="10" stroke-linecap="round" stroke-linejoin="round"/>
<path d="M17.5049 31.575C19.6409 35.685 21.7739 39.792 23.9099 43.902C25.0829 46.155 27.4199 47.565 29.9609 47.556C32.5049 47.544 34.8269 46.113 35.9819 43.848C38.0609 39.756 40.1369 35.667 42.2159 31.575" stroke="#EBF0FF" stroke-width="3" stroke-miterlimit="10" stroke-linecap="round" stroke-linejoin="round"/>
<path d="M30 0C24.0666 0 18.2664 1.75947 13.3329 5.05591C8.39943 8.35235 4.55426 13.0377 2.28363 18.5195C0.0129985 24.0013 -0.581102 30.0333 0.576455 35.8527C1.73401 41.6721 4.59124 47.0176 8.78681 51.2132C12.9824 55.4088 18.3279 58.266 24.1473 59.4236C29.9667 60.5811 35.9987 59.987 41.4805 57.7164C46.9623 55.4458 51.6477 51.6006 54.9441 46.6671C58.2405 41.7336 60 35.9334 60 30C59.9913 22.0462 56.8278 14.4206 51.2036 8.79644C45.5794 3.17225 37.9538 0.00873479 30 0ZM57.849 30C57.849 35.5087 56.2154 40.8938 53.1549 45.4741C50.0943 50.0544 45.7443 53.6242 40.6548 55.7322C35.5654 57.8401 29.9651 58.3915 24.5623 57.3166C19.1594 56.2417 14.1967 53.5888 10.3016 49.6933C6.40656 45.7978 3.75415 40.8348 2.67982 35.4318C1.60548 30.0289 2.15747 24.4287 4.26598 19.3394C6.37449 14.2502 9.94482 9.90051 14.5255 6.84045C19.1061 3.78039 24.4913 2.14741 30 2.148C37.3839 2.15673 44.4627 5.09404 49.6836 10.3155C54.9045 15.5369 57.8411 22.6161 57.849 30Z" fill="#EBF0FF"/>
<path d="M23.04 22.875C25.086 22.875 26.745 27.675 26.745 22.875C26.745 18.075 25.086 14.175 23.04 14.175C20.994 14.175 19.335 18.075 19.335 22.875C19.335 27.675 21 22.875 23.04 22.875Z" fill="#EBF0FF"/>
<path d="M36.96 22.875C39.006 22.875 40.665 27.675 40.665 22.875C40.665 18.075 39.006 14.175 36.96 14.175C34.914 14.175 33.255 18.075 33.255 22.875C33.255 27.675 34.914 22.875 36.96 22.875Z" fill="#EBF0FF"/>
<path d="M17.34 31.683C18.4845 34.0275 20.2636 36.0041 22.4751 37.3883C24.6867 38.7724 27.242 39.5086 29.851 39.5133C32.46 39.518 35.018 38.791 37.2345 37.4148C39.4509 36.0386 41.2371 34.0684 42.39 31.728" stroke="#EBF0FF"/>
<path d="M45.4051 30.876C45.0439 31.2125 44.6097 31.4607 44.1365 31.6012C43.6633 31.7417 43.164 31.7706 42.6778 31.6858C42.1915 31.6009 41.7315 31.4045 41.3339 31.112C40.9363 30.8196 40.6119 30.4389 40.386 30" stroke="#EBF0FF"/>
<path d="M14.322 30.876C14.6829 31.2125 15.1169 31.4607 15.5898 31.6012C16.0628 31.7417 16.5619 31.7707 17.0479 31.6858C17.534 31.6009 17.9937 31.4045 18.3911 31.112C18.7884 30.8195 19.1126 30.4389 19.338 30" stroke="#EBF0FF"/>
<path d="M17.508 31.569L23.913 43.902C24.4884 45.0084 25.3575 45.9349 26.4249 46.5797C27.4924 47.2245 28.7169 47.5627 29.964 47.5571C31.211 47.5515 32.4325 47.2024 33.4941 46.5481C34.5558 45.8938 35.4166 44.9595 35.982 43.848L42.216 31.569" stroke="#EBF0FF"/>
</g>
<defs>
<clipPath id="clip0_77_278">
<rect width="60" height="60" fill="white"/>
</clipPath>
</defs>
</svg>
