<svg width="18" height="18" viewBox="0 0 18 18" fill="none" xmlns="http://www.w3.org/2000/svg">
<path d="M2.25 7.75V4.75C2.25 3.645 3.145 2.75 4.25 2.75H6.201C6.808 2.75 7.381 3.025 7.761 3.498L8.364 4.25H13.75C14.855 4.25 15.75 5.145 15.75 6.25V7.75" stroke="#EBF0FF" stroke-width="1.5" stroke-linecap="round" stroke-linejoin="round"/>
<path d="M2.70211 7.75H15.2981C16.2841 7.75 17.0011 8.684 16.7471 9.636L15.6461 13.765C15.4131 14.641 14.6201 15.25 13.7141 15.25H4.28711C3.38111 15.25 2.58811 14.641 2.35511 13.765L1.25411 9.636C1.00011 8.684 1.71811 7.75 2.70311 7.75H2.70211Z" stroke="#EBF0FF" stroke-width="1.5" stroke-linecap="round" stroke-linejoin="round"/>
</svg>
