<svg width="72" height="40" viewBox="0 0 72 40" fill="none" xmlns="http://www.w3.org/2000/svg">
<g clip-path="url(#clip0_77_297)">
<path d="M20.0288 40C14.2789 40 9.77722 31.2147 9.77722 20C9.77722 8.78534 14.2813 0 20.0288 0C24.8203 0 28.9123 6.30091 30.0024 15.333L28.771 15.4816C27.7743 7.22808 24.0968 1.24102 20.0288 1.24102C15.0599 1.24102 11.0302 9.6574 11.0302 20C11.0302 30.3426 15.0719 38.759 20.0408 38.759C24.1136 38.759 27.7863 32.7695 28.783 24.5256L30.0144 24.6742C28.9123 33.6991 24.8108 40 20.0288 40Z" fill="#EBF0FF"/>
<path d="M20.0287 40H13.85C8.10013 40 3.59845 31.2147 3.59845 20C3.59845 8.78534 8.10013 0 13.85 0H20.0287V1.24102H13.85C8.87396 1.24102 4.83947 9.6574 4.83947 20C4.83947 30.3426 8.88115 38.759 13.85 38.759H20.0287V40Z" fill="#EBF0FF"/>
<path d="M56.7369 40C50.987 40 46.4854 31.2147 46.4854 20C46.4854 8.78534 50.9894 0 56.7369 0C59.3723 0 61.8543 1.89267 63.7422 5.33062L62.6545 5.92717C60.9942 2.90609 58.8931 1.24102 56.7369 1.24102C51.7681 1.24102 47.7264 9.6574 47.7264 20C47.7264 30.3426 51.7681 38.759 56.7369 38.759C58.8931 38.759 60.9894 37.0987 62.6473 34.0824L63.7374 34.6814C61.8495 38.1121 59.3651 40 56.7369 40Z" fill="#EBF0FF"/>
<path d="M56.737 40H50.5606C44.8108 40 40.3091 31.2147 40.3091 20C40.3091 8.78534 44.8108 0 50.5606 0H56.7394V1.24102H50.5606C45.5918 1.24102 41.5501 9.6574 41.5501 20C41.5501 30.3426 45.5918 38.759 50.5606 38.759H56.7394L56.737 40Z" fill="#EBF0FF"/>
<path d="M63.4643 35.0024C59.1088 35.0024 55.6948 28.414 55.6948 20C55.6948 11.586 59.1088 4.99762 63.4643 4.99762C67.8198 4.99762 71.2314 11.586 71.2314 20C71.2314 28.414 67.8102 35.0024 63.4643 35.0024ZM63.4643 6.23864C59.9257 6.23864 56.9382 12.5395 56.9382 20C56.9382 27.4605 59.9257 33.7614 63.4643 33.7614C67.0029 33.7614 69.9904 27.4533 69.9904 20C69.9904 12.5467 67.0005 6.23864 63.4643 6.23864Z" fill="#EBF0FF"/>
<path d="M63.4643 35.0024H58.8788C54.5209 35.0024 51.1093 28.414 51.1093 20C51.1093 11.586 54.5209 4.99762 58.8788 4.99762H63.4643V6.23864H58.8788C55.3402 6.23864 52.3503 12.5395 52.3503 20C52.3503 27.4605 55.3402 33.7614 58.8788 33.7614H63.4643V35.0024Z" fill="#EBF0FF"/>
<path d="M66.1524 25.2204C64.4969 25.2204 63.2463 22.9756 63.2463 20C63.2463 17.0245 64.4969 14.7796 66.1524 14.7796C67.8078 14.7796 69.0608 17.0245 69.0608 20C69.0608 22.9756 67.8102 25.2204 66.1524 25.2204ZM66.1524 16.0206C65.3665 16.0206 64.4897 17.724 64.4897 20C64.4897 22.276 65.3665 23.9794 66.1524 23.9794C66.8495 23.9794 67.8174 22.4653 67.8174 20C67.8174 17.5348 66.8519 16.0206 66.1524 16.0206Z" fill="#EBF0FF"/>
<path d="M66.1524 25.2204H64.6958C63.0403 25.2204 61.7897 22.9756 61.7897 20C61.7897 17.0245 63.0307 14.7796 64.6958 14.7796H66.162V16.0206H64.6958C64.001 16.0206 63.0307 17.5348 63.0307 20C63.0307 22.4653 64.001 23.9794 64.6958 23.9794H66.162L66.1524 25.2204Z" fill="#EBF0FF"/>
<path d="M41.2003 25.2204H20.8529C19.195 25.2204 17.9468 22.9756 17.9468 20C17.9468 17.0245 19.1759 14.7796 20.8529 14.7796H41.2171V16.0206H20.8529C20.0671 16.0206 19.1879 17.724 19.1879 20C19.1879 22.276 20.0575 23.9794 20.8529 23.9794H41.2171L41.2003 25.2204Z" fill="#EBF0FF"/>
<path d="M7.13464 34.6119C6.76569 34.6119 5.43124 34.516 4.02012 33.2367C2.29516 31.6698 0.196454 28.0426 0.00958341 19.6574C-0.0790606 15.7451 0.448011 6.48058 7.19693 5.01196L7.46047 6.22423C1.61476 7.50118 1.16914 16.0254 1.2506 19.6286C1.42549 27.506 3.27983 30.8529 4.80594 32.2712C6.03258 33.4116 7.1011 33.3732 7.14662 33.3708L7.23287 34.6095L7.13464 34.6119Z" fill="#EBF0FF"/>
</g>
<defs>
<clipPath id="clip0_77_297">
<rect width="71.2314" height="40" fill="white"/>
</clipPath>
</defs>
</svg>
